<svg xmlns="http://www.w3.org/2000/svg" viewBox="0 0 1091.69 193.06"><defs><style>.cls-1{fill:#c42012;}.cls-2{fill:#fff;}</style></defs><title>Asset 10</title><g id="Layer_2" data-name="Layer 2"><g id="Layer_1-2" data-name="Layer 1"><path class="cls-1" d="M180.13,38.17c-11.16,0-20.3-8.53-20.3-19.09S169,0,180.13,0s20.1,8.53,20.1,19.08S191.3,38.17,180.13,38.17ZM198.4,157.73c-20.5,0-36.54-10.15-36.54-36.54V47.91h9.54c21.93,0,29,6.29,29,26.59v41c0,9.95,4.67,13,15.43,13h4.67v11.37C220.53,153.27,210.38,157.73,198.4,157.73Z"/><path class="cls-1" d="M342.94,132.76c.2,3.45.2,7.31.2,11.37,0,27.2-23.14,48.93-58.46,48.93-31.87,0-44.26-14.21-44.26-28.42v-12h1.22c6.9,6.29,19.89,10,38,10,16.24,0,25-8.94,25-20.91,0-1.83-.41-4.47-.41-6.5v-3.86c-2.43,7.11-11.36,14-22.53,14-28.22,0-50.95-14.21-50.95-48.92,0-30.66,24.15-55.22,62.12-55.22,33.9,0,49.73,19.69,49.73,50.14v29.44C342.53,123.43,342.74,127.49,342.94,132.76Zm-73.89-40c0,16.65,7.71,22.74,19.28,22.74,10.76,0,16.65-8.32,16.65-20.91,0-16.44-6.09-22.33-17.66-22.33S269.05,79.78,269.05,92.77Z"/><path class="cls-1" d="M385.57,38.17c-11.17,0-20.3-8.53-20.3-19.09S374.4,0,385.57,0s20.09,8.53,20.09,19.08S396.73,38.17,385.57,38.17Zm18.27,119.56c-20.51,0-36.54-10.15-36.54-36.54V47.91h9.54c21.92,0,29,6.29,29,26.59v41c0,9.95,4.67,13,15.42,13H426v11.37C426,153.27,415.81,157.73,403.84,157.73Z"/><path class="cls-1" d="M453,24.77c5.08-3.86,12-7.52,20.1-7.52h4.06V44.46H509.8v13.6c0,9.54-10.15,16.85-18.88,16.85h-13.8v40.4c0,7.51,4.67,12,12.18,12,9.13,0,13.4-.81,17.46-2.43h1v15c0,9.34-8.52,17.86-28.62,17.86-19.08,0-39.59-9.13-39.59-39.79V48.72C439.56,38.57,445.45,30.45,453,24.77Z"/><path class="cls-2" d="M684.59,156.11c-13.4,0-23.15-7.31-23.15-21.93,0-12.58-1.22-48.51-3.45-69.22l-19.28,58.87c-2.85,8.53-8.73,23.55-14,32.28H613.94c-13.2,0-23.55-10-32.28-38.37l-7.1-23.34c-3.45-11.57-7.72-24-9.95-29.84-2.44,24-4.26,68.41-4.26,91.55H545.93c-11.77,0-22.53-8.12-22.53-21.93C523.4,94,528.88,45.47,535.58,16H549c22.33,0,33.7,10.55,38.77,22.94l11,27.2C603.38,78,609.27,94,612.32,105.76a330.38,330.38,0,0,1,11.57-32.88l13.4-32.08c5.07-12,11.77-20.5,16.84-24.76h7.11c20.3,0,30,11.16,32.68,31.26A903.52,903.52,0,0,1,701,156.11Z"/><path class="cls-2" d="M775.12,114.09H758.47c2.24,11.16,11.37,16.44,27.41,16.44,17.86,0,29-2.84,35.32-7.1h1.42v8.93c0,14.21-11.57,27-43.44,27-38.57,0-58.87-26-58.87-56.84,0-33.9,22.94-61.51,57.45-61.51,29.23,0,52,16.44,52,44.86C829.73,108.2,812.88,114.09,775.12,114.09Zm2.64-44.26c-13.6,0-19.29,8.73-20.3,19.49h15c18.27,0,21.52-2.84,21.52-7.71C794,75.92,788.92,69.83,777.76,69.83Z"/><path class="cls-2" d="M1034.64,159.36c-36.13,0-55.82-17.66-55.82-53.39V44.46h15c16.85,0,24.16,5.68,24.16,22.73V107c0,16.45,7.71,21.52,18.27,21.52,9.13,0,16.44-5.28,16.44-22.94V44.46h15c15.43,0,24,6.49,24,22.73V107C1091.69,142.71,1069,159.36,1034.64,159.36Z"/><path class="cls-1" d="M75.05,13H60.43c-11,0-29.64,2.84-40,6.7V32L59,70.54V44.88a38.41,38.41,0,0,1,6.09-.81h8.12c19.08,0,34.51,14,34.51,41.81,0,24-12,40-34.31,40H67.13c-5.07,0-8.12-4.27-8.12-9.14V101.25L55.27,105,23.12,137.14c6.1,14,22,19.8,41.57,19.8H78.5c40.19,0,67.8-31.47,67.8-74.1C146.3,35.13,109.36,13,75.05,13Z"/><path class="cls-1" d="M14,52.67,3.7,63,13.78,73.08,24.11,62.75Zm-.25,20.41L0,86.86l13.43,13.43L27.21,86.51Zm34.1-7.23L27.21,86.51l20.15,20.16L68,86Z"/><path class="cls-1" d="M976.84,160.26c2.41,2.4,3.24,8.29.13,11.67s-8.46,2.5-10.65-.13l-60.5-71.32-2.3-2.68q-31.65,37.28-63.29,74.58a7.32,7.32,0,0,1-10.62.13c-3.12-3.38-2.3-9.28.11-11.67Q863.83,126,897.91,91.21s-11-13-15.75-18.61c-11.1,8.73-27.55,5.41-37.44-8-10.64-14.13-19.81-39.41-10.93-49.76,9.44-9.75,32.47.34,45.35,12,12.21,10.86,15.25,28.88,7.27,41.07l17.16,17.51,0,0s.35.31,0,0l16-16.39c-4.52-8.47-1.52-20.34,5.82-27.11,8.42-7.74,39.61-37.12,40.45-36.19s-21,23.59-35.66,39.67l2.44,2.67c15.6-15,37.62-37.49,38.47-36.58s-20.35,24.34-34.49,41l2.42,2.65c15.12-15.53,36.47-38.78,37.3-37.86S956.7,42.34,943,59.46l2.42,2.65c14.65-16,35.31-40,36.16-39.12s-32.93,44.33-33,44.4,7.17-9.25,0,0c-6.87,8.82-17.13,11.48-24.71,6.41L909.15,91.15C908.72,90.7,954.28,137.22,976.84,160.26Z"/></g></g></svg>